# AST/ASF file generated using VICON BodyLanguage
# -----------------------------------------------
:version 1.10
:name VICON
:units
  mass 1.0
  length 0.45
  angle deg
:documentation
   .ast/.asf automatically generated from VICON data using
   VICON BodyBuilder and BodyLanguage model FoxedUp or BRILLIANT.MOD
:root
   order TX TY TZ RX RY RZ
   axis XYZ
   position 0 0 0  
   orientation 0 0 0 
:bonedata
  begin
     id 1 
     name lhipjoint
     direction 0.589753 -0.68606 0.426044 
     length 2.54082 
     axis 0 0 0  XYZ
  end
  begin
     id 2 
     name lfemur
     direction 0.34202 -0.939693 0  
     length 7.04539  
     axis 0 0 20  XYZ
    dof rx ry rz
    limits (-160.0 20.0)
           (-70.0 70.0)
           (-60.0 70.0)
  end
  begin
     id 3 
     name ltibia
     direction 0.34202 -0.939693 0   
     length 7.83772   
     axis 0 0 20   XYZ
    dof rx
    limits (-10.0 170.0)
  end
  begin
     id 4 
     name lfoot
     direction 0.0596604 -0.163915 0.984669   
     length 2.39542   
     axis -90 7.62852e-016 20   XYZ
    dof rx rz
    limits (-45.0 90.0)
           (-70.0 20.0)
  end
  begin
     id 5 
     name ltoes
     direction 1.53514e-011 -4.21954e-011 1   
     length 1.2047   
     axis -90 7.62852e-016 20   XYZ
    dof rx
    limits (-90.0 20.0)
  end
  begin
     id 6 
     name rhipjoint
     direction -0.580585 -0.69168 0.429534   
     length 2.52018  
     axis 0 0 0  XYZ 
  end
  begin
     id 7 
     name rfemur
     direction -0.34202 -0.939693 0   
     length 7.0101   
     axis 0 0 -20   XYZ
    dof rx ry rz
    limits (-160.0 20.0)
           (-70.0 70.0)
           (-70.0 60.0)
  end
  begin
     id 8 
     name rtibia
     direction -0.34202 -0.939693 0   
     length 7.70628   
     axis 0 0 -20   XYZ
    dof rx
    limits (-10.0 170.0)
 end
 begin
     id 9 
     name rfoot
     direction -0.0696237 -0.19129 0.979061   
     length 2.52466  
     axis -90 -7.62852e-016 -20   XYZ
    dof rx rz
    limits (-45.0 90.0)
           (-20.0 70.0)
  end
  begin
     id 10 
     name rtoes
     direction -1.53519e-011 -4.21793e-011 1   
     length 1.266   
     axis -90 -7.62852e-016 -20   XYZ
    dof rx
    limits (-90.0 20.0)
  end
  begin
     id 11 
     name lowerback
     direction 0.00381965 0.995707 -0.0924856   
     length 2.20825   
     axis 0 0 0   XYZ
    dof rx ry rz
    limits (-20.0 45.0)
           (-30.0 30.0)
           (-30.0 30.0)
  end
  begin
     id 12 
     name upperback
     direction -0.0139043 0.999634 -0.0231929   
     length 2.21517   
     axis 0 0 0   XYZ
    dof rx ry rz
    limits (-20.0 45.0)
           (-30.0 30.0)
           (-30.0 30.0)
  end
  begin
     id 13 
     name thorax
     direction -0.0143933 0.999691 0.0202892   
     length 2.22911   
     axis 0 0 0   XYZ
    dof rx ry rz
    limits (-20.0 45.0)
           (-30.0 30.0)
           (-30.0 30.0)
  end
  begin
     id 14 
     name lowerneck
     direction -0.0251153 0.981819 0.188153   
     length 1.61782   
     axis 0 0 0   XYZ
    dof rx ry rz
    limits (-20.0 45.0)
           (-30.0 30.0)
           (-30.0 30.0)
  end
  begin
     id 15 
     name upperneck
     direction 0.0563891 0.969357 -0.239095   
     length 1.64526   
     axis 0 0 0   XYZ
    dof rx ry rz
    limits (-20.0 45.0)
           (-30.0 30.0)
           (-30.0 30.0)
  end
  begin
     id 16
     name head
     direction 0.0208328 0.99459 -0.101773  
     length 1.67436  
     axis 0 0 0   XYZ
    dof rx ry rz
    limits (-20.0 45.0)
           (-30.0 30.0)
           (-30.0 30.0)
  end
  begin
     id 17 
     name lclavicle
     direction 0.917689 0.397224 0.00772059  
     length 3.31102  
     axis 0 0 0   XYZ
    dof ry rz
    limits (-20.0 10.0)
           (0.0 20.0)
  end
  begin
     id 18 
     name lhumerus
     direction 1 -4.4896e-011 2.32308e-027   
     length 5.25537   
     axis 180 -30 -90   XYZ
    dof rx ry rz
    limits (-60.0 90.0)
           (-90.0 90.0)
           (-90.0 90.0)
  end
  begin
     id 19
     name lradius
     direction 1 -4.49005e-011 -2.04271e-027   
     length 3.38855   
     axis 180 -30 -90   XYZ
    dof rx
    limits (-10.0 170.0)
  end
  begin
     id 20
     name lwrist
     direction 1 -4.48892e-011 2.56952e-028   
     length 1.69428   
     axis -5.12785e-016 90 90   XYZ
    dof ry
    limits (-180.0 0.0)
 end
  begin
     id 21 
     name lhand
     direction 1 -4.48966e-011 5.13905e-028   
     length 0.614516   
     axis -3.27915e-016 90 90   XYZ
    dof rx rz
    limits (-90.0 90.0)
           (-45.0 45.0)
  end
  begin
     id 22 
     name lfingers
     direction 1 -4.48979e-011 1.02781e-027   
     length 0.495439   
     axis -6.5583e-016 90 90   XYZ
    dof rx
    limits (0.0 90.0)
  end
  begin
     id 23
     name lthumb
     direction 0.707107 -6.35001e-011 0.707107   
     length 0.711354   
     axis -90 45 2.85299e-015   XYZ
    dof rx rz
    limits (-45.0 45.0)
           (-45.0 45.0)
  end
  begin
     id 24 
     name rclavicle
     direction -0.938556 0.342765 -0.0403177   
     length 3.27019  
     axis 0 0 0   XYZ 
    dof ry rz
    limits (-10.0 20.0)
           (-20.0 0.0)
  end
  begin
     id 25 
     name rhumerus
     direction -1 -4.48966e-011 2.52291e-027  
     length 5.38183   
     axis 180 30 90   XYZ
    dof rx ry rz
    limits (-90.0 60.0)
           (-90.0 90.0)
           (-90.0 90.0)
  end
  begin
     id 26 
     name rradius
     direction -1 -4.4896e-011 1.5797e-027   
     length 3.16988   
     axis 180 30 90   XYZ
    dof rx
    limits (-10.0 170.0)
  end
  begin
     id 27 
     name rwrist
     direction -1 -4.48947e-011 2.56952e-028   
     length 1.58494   
     axis -5.12785e-016 -90 -90   XYZ
    dof ry
    limits (-180.0 0.0)
  end
  begin
     id 28
     name rhand
     direction -1 -4.49098e-011 5.13905e-028   
     length 0.637679   
     axis -3.27915e-016 -90 -90   XYZ
    dof rx rz
    limits (-90.0 90.0)
           (-45.0 45.0)
  end
  begin
     id 29
     name rfingers
     direction -1 -4.49026e-011 1.02781e-027   
     length 0.514113   
     axis -6.5583e-016 -90 -90   XYZ
    dof rx
    limits (0.0 90.0)
  end
  begin
     id 30
     name rthumb
     direction -0.707107 -6.3491e-011 0.707107   
     length 0.738167   
     axis -90 -45 -2.85299e-015   XYZ
    dof rx rz
    limits (-45.0 45.0)
           (-45.0 45.0)
  end
:hierarchy
  begin
    root lhipjoint rhipjoint lowerback
    lhipjoint lfemur
    lfemur ltibia
    ltibia lfoot
    lfoot ltoes
    rhipjoint rfemur
    rfemur rtibia
    rtibia rfoot
    rfoot rtoes
    lowerback upperback
    upperback thorax
    thorax lowerneck lclavicle rclavicle
    lowerneck upperneck
    upperneck head
    lclavicle lhumerus
    lhumerus lradius
    lradius lwrist
    lwrist lhand lthumb
    lhand lfingers
    rclavicle rhumerus
    rhumerus rradius
    rradius rwrist
    rwrist rhand rthumb
    rhand rfingers
  end

#!OML:ASF H:\Swim\Project 1\Capture day 1\Session 1\swimmer.ASF
:FULLY-SPECIFIED
:DEGREES
3053
root 5.40869 11.6633 21.0931 84.9839 -3.53396 2.1842
lowerback 3.8278 9.55614 1.40359
upperback -6.19014 12.7062 -7.87256
thorax -6.53964 6.16048 -10.1791
lowerneck 9.90058 -16.2529 -14.4343
upperneck -3.19937 -22.5349 14.9744
head 0.832358 -11.5906 6.51182
rclavicle -7.63333e-014 -9.54166e-015
rhumerus 376.206 12.2445 332.845
rradius 50.999
rwrist -23.9118
rhand -21.1889 0.169962
rfingers 7.12502
rthumb 5.19191 -389.746
lclavicle -7.63333e-014 -9.54166e-015
lhumerus 45.788 31.9672 -1.75229
lradius 92.9925
lwrist 27.6094
lhand 50.2734 -704.628
lfingers 7.12502
lthumb 70.1296 10.689
rfemur -12.4527 4.45904 24.4793
rtibia 34.0666
rfoot -0.579486 -15.6408
rtoes 1.56819
lfemur -20.9189 -9.07439 -20.8281
ltibia 38.1445
lfoot -0.87353 8.48696
ltoes -2.92112
3054
root 5.41903 11.6592 21.0824 84.8915 -3.69409 2.03094
lowerback 3.80178 8.9823 1.13251
upperback -5.88135 11.9048 -7.58189
thorax -6.44299 5.77342 -9.64806
lowerneck 8.62325 -15.8106 -14.7626
upperneck -2.79453 -21.9068 14.6743
head 1.05809 -11.2308 6.37843
rclavicle -3.81667e-014 7.95139e-015
rhumerus 376.573 13.8398 332.582
rradius 52.6071
rwrist -24.7731
rhand -21.0863 0.0532013
rfingers 7.12502
rthumb 5.29103 -389.861
lclavicle -3.81667e-014 7.95139e-015
lhumerus 47.0952 31.8796 -2.26872
lradius 89.7122
lwrist 25.0572
lhand 48.4203 -705.427
lfingers 7.12502
lthumb 68.8851 13.5671
rfemur -12.4851 4.73226 24.4891
rtibia 34.1452
rfoot -1.21925 -15.8868
rtoes 1.79127
lfemur -20.9566 -9.26736 -20.9043
ltibia 38.1243
lfoot -0.7147 8.42113
ltoes -2.70169
3055
root 5.43037 11.6546 21.0708 84.801 -3.85206 1.86114
lowerback 3.79885 8.49167 0.823549
upperback -5.63853 11.216 -7.31952
thorax -6.40036 5.44256 -9.14242
lowerneck 7.52096 -15.4593 -14.8293
upperneck -2.44018 -21.373 14.1826
head 1.20664 -10.9202 6.17838
rclavicle 7.95139e-014 7.15625e-015
rhumerus 376.598 15.5606 332.513
rradius 54.4032
rwrist -25.8144
rhand -21.1564 -0.0940751
rfingers 7.12502
rthumb 5.22337 -390.01
lclavicle 7.95139e-014 7.15625e-015
lhumerus 48.7234 31.6365 -2.47446
lradius 86.3384
lwrist 22.5775
lhand 46.3351 -706.077
lfingers 7.12502
lthumb 67.3893 16.5404
rfemur -12.5887 5.11811 24.4945
rtibia 34.265
rfoot -2.00604 -16.1397
rtoes 1.95539
lfemur -20.9447 -9.41636 -20.9933
ltibia 38.1254
lfoot -0.521263 8.33362
ltoes -2.37758
3056
root 5.44292 11.6496 21.0589 84.7142 -3.99856 1.68304
lowerback 3.80201 8.08554 0.481653
upperback -5.4636 10.642 -7.07256
thorax -6.40801 5.16947 -8.64827
lowerneck 6.68218 -15.1814 -14.6741
upperneck -2.18872 -20.9312 13.5142
head 1.25669 -10.6621 5.92684
rclavicle -6.99722e-014 9.54166e-015
rhumerus 376.279 17.3324 332.581
rradius 56.3544
rwrist -26.8378
rhand -21.224 -0.249374
rfingers 7.12502
rthumb 5.15811 -390.167
lclavicle -6.99722e-014 9.54166e-015
lhumerus 50.6677 31.2297 -2.3535
lradius 82.8831
lwrist 20.2596
lhand 43.9564 -706.524
lfingers 7.12502
lthumb 65.5823 19.6523
rfemur -12.7629 5.59356 24.5005
rtibia 34.4249
rfoot -2.9159 -16.383
rtoes 2.01035
lfemur -20.8866 -9.53911 -21.0857
ltibia 38.1434
lfoot -0.336417 8.24118
ltoes -2.01162
3057
root 5.45627 11.6445 21.0466 84.6323 -4.13931 1.4991
lowerback 3.8051 7.73432 0.102562
upperback -5.34216 10.1419 -6.82657
thorax -6.45832 4.9345 -8.14351
lowerneck 6.07561 -14.9427 -14.3624
upperneck -2.04718 -20.5469 12.7031
head 1.21819 -10.439 5.63872
rclavicle 1.17681e-013 -3.18055e-015
rhumerus 375.723 19.0911 332.711
rradius 58.3952
rwrist -27.6083
rhand -21.123 -0.383298
rfingers 7.12502
rthumb 5.25554 -390.298
lclavicle 1.17681e-013 -3.18055e-015
lhumerus 52.815 30.6964 -1.97059
lradius 79.3669
lwrist 18.1265
lhand 41.3529 -706.79
lfingers 7.12502
lthumb 63.5067 22.6924
rfemur -13.0031 6.14723 24.4998
rtibia 34.6254
rfoot -3.9611 -16.6054
rtoes 1.93649
lfemur -20.7822 -9.60549 -21.1857
ltibia 38.1719
lfoot -0.192346 8.11981
ltoes -1.67386
3058
root 5.47048 11.6396 21.0339 84.5512 -4.27752 1.31022
lowerback 3.82039 7.3924 -0.289656
upperback -5.24588 9.65461 -6.57399
thorax -6.53389 4.70661 -7.62817
lowerneck 5.56834 -14.7126 -13.9728
upperneck -1.97145 -20.1779 11.798
head 1.13356 -10.2267 5.32535
rclavicle -7.95139e-014 -5.32743e-014
rhumerus 375.093 20.7795 332.841
rradius 60.4559
rwrist -27.9359
rhand -20.7698 -0.471082
rfingers 7.12502
rthumb 5.59665 -390.377
lclavicle -7.95139e-014 -5.32743e-014
lhumerus 54.9913 30.0892 -1.4482
lradius 75.8297
lwrist 16.1556
lhand 38.4946 -706.898
lfingers 7.12502
lthumb 61.1359 25.6316
rfemur -13.2968 6.76573 24.4878
rtibia 34.8645
rfoot -5.11967 -16.8038
rtoes 1.74956
lfemur -20.6254 -9.62971 -21.2967
ltibia 38.2015
lfoot -0.117494 7.99076
ltoes -1.42554
3059
root 5.48556 11.6354 21.0209 84.4696 -4.42895 1.11729
lowerback 3.86764 7.06992 -0.742532
upperback -5.18017 9.18949 -6.30435
thorax -6.65994 4.49243 -7.0701
lowerneck 5.15626 -14.491 -13.5484
upperneck -1.94729 -19.8288 10.8397
head 1.01749 -10.0272 5.00136
rclavicle -6.36111e-014 -1.82882e-014
rhumerus 374.356 22.3628 332.966
rradius 62.5196
rwrist -27.7497
rhand -20.0796 -0.502906
rfingers 7.12502
rthumb 6.26298 -390.39
lclavicle -6.36111e-014 -1.82882e-014
lhumerus 57.2444 29.3614 -0.691701
lradius 72.27
lwrist 14.2428
lhand 35.3851 -706.89
lfingers 7.12502
lthumb 58.4722 28.3999
rfemur -13.6357 7.40423 24.4428
rtibia 35.14
rfoot -6.34736 -16.9494
rtoes 1.46431
lfemur -20.4155 -9.59981 -21.4344
ltibia 38.2224
lfoot -0.107613 7.85331
ltoes -1.26373
3060
root 5.50111 11.6321 21.0082 84.4032 -4.59447 0.917305
lowerback 3.93583 6.78108 -1.29842
upperback -5.15141 8.76331 -6.00255
thorax -6.84344 4.30346 -6.43046
lowerneck 4.87461 -14.2552 -13.1999
upperneck -1.99412 -19.4786 9.99234
head 0.884044 -9.8325 4.73022
rclavicle 5.40694e-014 -5.88403e-014
rhumerus 373.476 23.8243 333.105
rradius 64.5839
rwrist -27.0713
rhand -19.0651 -0.46461
rfingers 7.12502
rthumb 7.24227 -390.321
lclavicle 5.40694e-014 -5.88403e-014
lhumerus 59.1924 28.7049 0.0741081
lradius 69.0098
lwrist 12.6429
lhand 32.063 -706.757
lfingers 7.12502
lthumb 55.5515 30.9749
rfemur -14.0218 8.07321 24.3659
rtibia 35.4447
rfoot -7.63567 -17.0589
rtoes 1.18231
lfemur -20.1702 -9.51067 -21.5917
ltibia 38.2256
lfoot -0.141352 7.71933
ltoes -1.26457
3061
root 5.51774 11.6304 20.9961 84.3327 -4.78258 0.70753
lowerback 4.04307 6.55213 -2.00082
upperback -5.16283 8.4076 -5.65334
thorax -7.10403 4.15871 -5.67614
lowerneck 4.73243 -14.0294 -12.8453
upperneck -2.06335 -19.157 9.12665
head 0.727409 -9.65394 4.46233
rclavicle 4.13472e-014 -1.27222e-014
rhumerus 372.372 25.1722 333.288
rradius 66.6684
rwrist -26.0151
rhand -17.7989 -0.333087
rfingers 7.12502
rthumb 8.46443 -390.143
lclavicle 4.13472e-014 -1.27222e-014
lhumerus 60.5693 28.247 0.652863
lradius 66.2864
lwrist 11.6086
lhand 28.5474 -706.468
lfingers 7.12502
lthumb 52.3964 33.3996
rfemur -14.4199 8.77985 24.2491
rtibia 35.7686
rfoot -8.92646 -17.1522
rtoes 0.962124
lfemur -19.8715 -9.39562 -21.7813
ltibia 38.2063
lfoot -0.205155 7.63902
ltoes -1.26199
3062
root 5.53567 11.6301 20.9848 84.267 -4.98465 0.497319
lowerback 4.17068 6.36235 -2.81431
upperback -5.19708 8.09697 -5.26007
thorax -7.40955 4.04609 -4.82373
lowerneck 4.67037 -13.7953 -12.5232
upperneck -2.14246 -18.836 8.30122
head 0.56676 -9.47693 4.21458
rclavicle -2.22639e-014 2.14687e-014
rhumerus 371.11 26.4144 333.522
rradius 68.7859
rwrist -24.7954
rhand -16.3867 -0.106831
rfingers 7.12502
rthumb 9.82706 -389.858
lclavicle -2.22639e-014 2.14687e-014
lhumerus 61.3545 28.0041 0.964697
lradius 64.071
lwrist 11.151
lhand 24.855 -706.005
lfingers 7.12502
lthumb 49.028 35.7135
rfemur -14.8271 9.4617 24.0951
rtibia 36.0981
rfoot -10.158 -17.2016
rtoes 0.792694
lfemur -19.5358 -9.27113 -21.9916
ltibia 38.163
lfoot -0.281166 7.62815
ltoes -1.22368
3063
root 5.55476 11.6313 20.975 84.2003 -5.18826 0.28216
lowerback 4.31562 6.1836 -3.68939
upperback -5.23567 7.79634 -4.83035
thorax -7.73277 3.94689 -3.9022
lowerneck 4.62841 -13.5234 -12.2372
upperneck -2.13849 -18.4842 7.18264
head 0.450566 -9.28017 4.32667
rclavicle -8.26944e-014 7.95139e-016
rhumerus 369.789 27.5756 333.799
rradius 70.9361
rwrist -23.6083
rhand -14.9949 0.205501
rfingers 7.12502
rthumb 11.1697 -389.477
lclavicle -8.26944e-014 7.95139e-016
lhumerus 61.5878 27.9687 0.964708
lradius 62.2813
lwrist 11.2614
lhand 21.1016 -705.338
lfingers 7.12502
lthumb 45.5599 37.9379
rfemur -15.2221 10.1174 23.92
rtibia 36.4208
rfoot -11.2764 -17.2267
rtoes 0.705024
lfemur -19.1624 -9.1319 -22.2072
ltibia 38.0982
lfoot -0.353235 7.69622
ltoes -1.14328
3064
root 5.57485 11.6336 20.967 84.1336 -5.3808 0.0600702
lowerback 4.46765 5.97613 -4.5539
upperback -5.25707 7.45713 -4.38116
thorax -8.03232 3.83334 -2.95757
lowerneck 4.47171 -13.2008 -11.9557
upperneck -2.17458 -18.0404 6.50887
head 0.319575 -9.04321 4.07499
rclavicle -1.59028e-014 2.38542e-015
rhumerus 368.539 28.6732 334.1
rradius 73.1206
rwrist -22.6503
rhand -13.7484 0.554819
rfingers 7.12502
rthumb 12.3717 -389.059
lclavicle -1.59028e-014 2.38542e-015
lhumerus 61.4881 28.0335 0.752585
lradius 60.6914
lwrist 11.6979
lhand 17.2775 -704.488
lfingers 7.12502
lthumb 41.9909 40.1051
rfemur -15.5906 10.7574 23.7413
rtibia 36.7264
rfoot -12.2631 -17.2584
rtoes 0.725229
lfemur -18.7597 -8.9659 -22.4121
ltibia 38.0151
lfoot -0.409042 7.83796
ltoes -1.03343
3065
root 5.59526 11.6366 20.961 84.0701 -5.55364 -0.174783
lowerback 4.62073 5.70987 -5.3573
upperback -5.25202 7.04216 -3.93124
thorax -8.28181 3.68313 -2.02777
lowerneck 4.1732 -12.8098 -11.6975
upperneck -2.19054 -17.4933 5.90917
head 0.226026 -8.75658 3.84219
rclavicle -2.70347e-014 9.54166e-015
rhumerus 367.452 29.7132 334.386
rradius 75.3335
rwrist -22.007
rhand -12.6942 0.882085
rfingers 7.12502
rthumb 13.3879 -388.668
lclavicle -2.70347e-014 9.54166e-015
lhumerus 61.3896 28.065 0.561179
lradius 59.0337
lwrist 12.1446
lhand 13.4881 -703.534
lfingers 7.12502
lthumb 38.4267 42.1481
rfemur -15.9229 11.3733 23.5739
rtibia 37.0064
rfoot -13.1286 -17.3033
rtoes 0.779151
lfemur -18.336 -8.74431 -22.5919
ltibia 37.916
lfoot -0.439153 8.03074
ltoes -0.943459
3066
root 5.616 11.6402 20.9566 84.0038 -5.70839 -0.414895
lowerback 4.77895 5.35757 -6.06208
upperback -5.20627 6.51691 -3.49464
thorax -8.45579 3.47502 -1.1399
lowerneck 3.68033 -12.3459 -11.4878
upperneck -2.17413 -16.8318 5.39604
head 0.185413 -8.4152 3.63178
rclavicle 4.13472e-014 1.03368e-014
rhumerus 366.611 30.6938 334.639
rradius 77.5587
rwrist -21.663
rhand -11.8788 1.13977
rfingers 7.12502
rthumb 14.1738 -388.357
lclavicle 4.13472e-014 1.03368e-014
lhumerus 61.4052 28.0426 0.501283
lradius 57.2188
lwrist 12.4054
lhand 9.80986 -702.569
lfingers 7.12502
lthumb 34.946 44
rfemur -16.1998 11.987 23.4215
rtibia 37.2578
rfoot -13.9172 -17.386
rtoes 0.910845
lfemur -17.8936 -8.49355 -22.748
ltibia 37.8014
lfoot -0.458927 8.28885
ltoes -0.828157
3067
root 5.63672 11.6436 20.9548 83.9819 -5.85258 -0.665469
lowerback 4.89859 4.94121 -6.69543
upperback -5.15028 5.91254 -3.07815
thorax -8.56132 3.2253 -0.288014
lowerneck 3.06017 -11.8405 -11.3114
upperneck -2.14952 -16.1027 4.94664
head 0.17822 -8.04207 3.43971
rclavicle 1.43125e-014 7.95139e-015
rhumerus 365.916 31.6026 334.841
rradius 79.798
rwrist -21.5375
rhand -11.2188 1.31796
rfingers 7.12502
rthumb 14.8097 -388.133
lclavicle 1.43125e-014 7.95139e-015
lhumerus 61.8523 27.8616 0.906063
lradius 55.1061
lwrist 12.2
lhand 6.31834 -701.715
lfingers 7.12502
lthumb 31.6266 45.5648
rfemur -16.4645 12.5311 23.2689
rtibia 37.476
rfoot -14.5965 -17.4623
rtoes 1.04331
lfemur -17.4893 -8.20093 -22.8772
ltibia 37.6708
lfoot -0.472701 8.59914
ltoes -0.699598
